<?xml version="1.0" encoding="utf-8"?>
<!-- Generator: Adobe Illustrator 25.4.1, SVG Export Plug-In . SVG Version: 6.00 Build 0)  -->
<svg version="1.1" id="Layer_1" xmlns="http://www.w3.org/2000/svg" xmlns:xlink="http://www.w3.org/1999/xlink" x="0px" y="0px"
	 viewBox="0 0 1500 3000" style="enable-background:new 0 0 1500 3000;" xml:space="preserve">
<style type="text/css">
	.st0{opacity:3.000000e-02;fill:#CC9900;enable-background:new    ;}
	.st1{opacity:5.000000e-02;}
	.st2{fill:none;stroke:#CC9933;stroke-width:8;stroke-miterlimit:10;}
	.st3{fill:none;stroke:#FFFFFF;stroke-width:8;stroke-miterlimit:10;}
</style>
<g>
	<polygon class="st0" points="1512.1,2084.3 -41.8,2482.8 -56.7,1136.8 1481.5,873.3 	"/>
	<polygon class="st0" points="1555.6,1593.1 1.8,1194.6 -8.3,2694.8 1562.3,2966.1 	"/>
</g>
<g class="st1">
	<path class="st2" d="M265.5,444.3c-90.3,0-163.5,12.5-163.5,28c0,15.5,73.3,32.2,163.6,32.2c90.3,0,163.4-16.7,163.4-32.2
		C429,456.9,355.8,444.3,265.5,444.3z"/>
	<path class="st2" d="M440.8,448.6c0-15.5-88.4-44.3-178.1-43.8c-87.6,0.6-171.1,27.9-171.1,43.3c0,8,7.5,10.4,10.4,12.9
		c24.1-11.2,55.6-25.9,161.9-24.2c129.1,2,127.9,11,163.6,21.7C428.4,456.9,440.8,456.8,440.8,448.6z"/>
	<path class="st2" d="M80.4,370.4c9.9,0,17.9,8,17.9,17.9c0,9-6.6,16.4-15.2,17.6l4,29.7c173.8-87.8,356.9,0,356.9,0l5.6-29
		c-8.3-1.6-14.5-8.8-14.5-17.5c0-9.9,8-17.9,17.9-17.9c1.2,0,2.3,0.1,3.4,0.3l15.7-81.7l-54.2,56.1l-33.6-89.7l-59.8,74.7
		l-54.2-108.4l-65.4,108.4l-56.1-82.2l-28,102.8l-54.2-67.3l11.7,86.3C78.9,370.5,79.7,370.4,80.4,370.4z M369,335.1
		c9.9,0,17.9,8,17.9,17.9c0,9.9-8,17.9-17.9,17.9c-9.9,0-17.9-8-17.9-17.9C351.1,343.1,359.1,335.1,369,335.1z M266.4,322.2
		c9.9,0,17.9,8,17.9,17.9c0,9.9-8,17.9-17.9,17.9c-9.9,0-17.9-8-17.9-17.9C248.6,330.2,256.6,322.2,266.4,322.2z M162.2,337.2
		c9.9,0,17.9,8,17.9,17.9c0,9.9-8,17.9-17.9,17.9c-9.9,0-17.9-8-17.9-17.9C144.3,345.2,152.3,337.2,162.2,337.2z"/>
	<path class="st2" d="M121.3,554.6c-3.5-3.2-6.9-4.8-10.1-4.8c-3.8,0-7.4,1.8-10.8,5.3c-3.4,3.5-5,7.2-5,11c0,4.8,1.8,8.8,5.3,12
		c3.5,3.2,7.7,4.8,12.5,4.8c3.5,0,6.7-1.8,9.4-5.5c2.7-3.7,4.1-7.8,4.1-12.3C126.6,561.4,124.9,557.9,121.3,554.6z"/>
	<path class="st2" d="M158.3,564.3c-4.2-3.2-9-4.8-14.4-4.8c-3.8,0-7.3,1.8-10.3,5.3c-3,3.5-4.6,7.7-4.6,12.5c0,4.5,1.7,8.6,5,12.3
		c3.4,3.7,7,5.5,10.8,5.5c4.8,0,9.3-2.1,13.5-6.2c4.2-4.2,6.2-8.5,6.2-13C164.6,571.3,162.5,567.5,158.3,564.3z"/>
	<path class="st2" d="M77.1,538.3c-8.6,0-13,5-13,14.9c0,9.3,5.6,13.9,16.8,13.9c9.6,0,14.4-4.8,14.4-14.4
		C95.4,543.1,89.3,538.3,77.1,538.3z"/>
	<path class="st2" d="M269.3,573.9c-4.8,0-9,2.3-12.5,7c-3.5,4.6-5.3,9.9-5.3,15.6c0,4.8,2.2,8.9,6.5,12.3c4.3,3.4,9.1,5.1,14.2,5.1
		c9.9,0,14.9-5.1,14.9-15.4c0-6.4-1.8-12.1-5.5-17.1C277.9,576.3,273.8,573.9,269.3,573.9z"/>
	<path class="st2" d="M437.3,553c-4-3.4-7.9-5-11.8-5c-8,0-12,4.3-12,13c0,9.9,5.8,14.9,17.3,14.9c8.3,0,12.5-4,12.5-12
		C443.3,559.9,441.3,556.3,437.3,553z"/>
	<path class="st2" d="M392.8,559.4c-9.3,0-13.9,4.8-13.9,14.4c0,5.4,1.7,10,5,13.7c3.4,3.7,7.4,5.5,12.3,5.5c2.6,0,5.5-1.6,8.9-4.8
		c3.4-3.2,5-6.1,5-8.6c0-5.1-1.8-9.8-5.5-13.9C400.9,561.5,397,559.4,392.8,559.4z"/>
	<path class="st2" d="M184.8,566.2c-3.8,0-7.4,2.3-10.8,7c-3.4,4.7-5,9.4-5,14.2c0,3.2,2.5,6.6,7.4,10.1c5,3.5,9.4,5.3,13.2,5.3
		c4.2,0,8-1.9,11.5-5.8c3.5-3.8,5.3-7.8,5.3-12C206.4,572.4,199.2,566.2,184.8,566.2z"/>
	<path class="st2" d="M232.3,572.4c-5.8,0-11,2.4-15.6,7.2c-4.6,4.8-7,9.9-7,15.4c0,4.2,2.1,7.8,6.2,10.8c4.2,3,9.1,4.6,14.9,4.6
		c10.9,0,16.3-6.1,16.3-18.3c0-5.4-1.5-10.1-4.6-13.9C239.6,574.3,236.2,572.4,232.3,572.4z"/>
	<path class="st2" d="M311.1,571.5c-5.1,0-9.7,2.2-13.7,6.5c-4,4.3-6,9.2-6,14.6c0,12.5,5.1,18.7,15.4,18.7c6.7,0,12.4-1.7,17.1-5
		c4.6-3.4,7-7.3,7-11.8c0-5.1-2.2-10.2-6.7-15.4C319.6,574,315.3,571.5,311.1,571.5z"/>
	<path class="st2" d="M356.8,566.2c-5.8,0-10.9,2-15.4,6c-4.5,4-6.7,8.9-6.7,14.7c0,3.8,2.2,7.6,6.7,11.3c4.5,3.7,9,5.5,13.5,5.5
		c12.5,0,18.7-5.6,18.7-16.8c0-4.5-1.8-9-5.3-13.7C364.8,568.5,360.9,566.2,356.8,566.2z"/>
	<g>
		<path class="st2" d="M461,539.7c-3.8,0-6.5,0.7-7.9,2.2c-1.4,1.4-2.8,5.2-4.1,11.3c1.3,5.8,5.3,8.6,12,8.6c9,0,13.5-3.8,13.5-11.5
			C474.5,543.3,470,539.7,461,539.7z"/>
		<path class="st2" d="M1057.6,566.7c-2.6-1.2-18.1-2.2-46.3-3c25.1-11.8,46.3-25.3,63.7-40.3c13.6-11.8,20.4-19.5,20.4-23
			c0-5.2-2.7-7.8-8.2-7.8c-4,0-6.8,0.7-8.2,2.2c-33.8,33.8-59.2,54.4-76.2,61.9l-2.2-0.9c0.9-7.8,1.3-14.1,1.3-19.1
			c0-21.7-6.8-32.5-20.4-32.5c-8.4,0-14.2,3.8-17.3,11.3c-3.8,11.3-7.5,22.5-11.3,33.8h-3.9c-2.6-5.5-4-8.5-4.3-9.1
			c-1.4-2.3-3.8-3.6-6.9-3.9c-2.9,9.8-9.7,18.4-20.4,25.8c-10.7,7.4-21.5,11-32.5,11c-1.4,0-3.5-1-6.1-3c4.3-10.1,6.5-17.6,6.5-22.5
			c0-6.1-2.1-11.6-6.3-16.7c-4.2-5.1-8.4-7.6-12.8-7.6c-6.6,0-12.1,3.2-16.5,9.5c-3.5,7.2-7.1,14.3-10.8,21.2
			c-7.5,12.4-19.4,18.6-35.5,18.6c-5.5,0-8.2-1.7-8.2-5.2c0-1.2,1.2-3.2,3.7-6.3c2.4-3,3.7-5.1,3.7-6.3v-4.3
			c-1.2-1.7-2.5-2.6-3.9-2.6c-0.3,0-3.3,2.2-9.1,6.5c-5.8,4.3-11,6.5-15.6,6.5c-11.5,0-26.3-6.5-44.2-19.5c-0.7-0.5-1.5-1.1-2.2-1.7
			c26.7-6.2,50.8-14.5,72.1-24.9c23.7-11.3,42.9-24.1,57.9-38.4c11.7-10.7,17.5-18.3,17.5-22.8V447c-3.9-1.6-6.3-2.4-7.3-2.4
			c-2.9,0-7.1,4.2-12.6,12.6c-7.5,11-14.3,18.8-20.4,23.3V479c0-8.4-2.6-12.6-7.8-12.6c-2.3,0-7,3.9-14.1,11.7
			c-12.3,13.9-21.4,23.7-27.2,29.2c-1.6-1.6-2.4-3.4-2.4-5.3c0-1.3,0.3-3,1-5.1c0.6-2.1,1-3.6,1-4.6c0-7.8-6.2-11.7-18.5-11.7
			c-1.9,0-4.4,1.1-7.3,3.2c-2.9,2.1-4.7,4.5-5.3,7c-4.2,14.3-14.9,25-32.1,32.1c1.6-11.3,2.4-16.5,2.4-15.6c0-13-5-19.4-15.1-19.4
			c-7.1,0-15.4,5.3-24.8,16c-11.7,13.3-20.9,21.9-27.7,25.8c-7.8,4.2-17.2,7.9-28.2,11.2c-1.6,0-3.2-0.5-4.9-1.5
			c22.4-16.2,33.5-31.1,33.5-44.7c0-3.9-2.1-7.5-6.3-10.7c-4.2-3.2-8.8-4.9-13.6-4.9c-7.8,0-23.7,8.9-47.6,26.7
			c-13.3,9.7-21.7,15.7-25.3,18c-9.1,4.9-18.6,7.3-28.7,7.3c-5.2,0-11.5-0.5-19-1.5c36-22,54-39.9,54-53.5c0-4.9-2.3-9.6-6.8-14.1
			c-4.5-4.5-9.2-6.8-14.1-6.8c-9.1,0-20.6,7.1-34.5,21.4c-15.2,15.2-27.2,23.7-36,25.3c8.4-19.1,12.6-30.5,12.6-34
			c0-11.3-4.7-17-14.1-17c-8.1,0-15.9,5.3-23.3,16c-3.2,7.8-8.9,17.7-17,29.7c-6.8,5.5-15.2,9.2-25.3,11.2
			c-7.5,1.6-11.2,3.6-11.2,5.8c0,4.9,2.6,8.6,7.8,11.2c1.3,0.3,9.2,2.6,23.8,6.8c15,4.3,30.1,7.9,45.1,11c1.9,1.3,4.3,2,7.5,2
			c0.8,0,1.5,0,2.2-0.1c33.9,6.3,67.8,9.5,101.8,9.5c47.3,0,89.6-3.8,126.9-11.5c11.8,12.4,26.1,23.1,42.7,32.1
			c30,16.2,64.5,24.3,103.5,24.3c23.4,0,55-4.3,94.9-13c11-2.9,22.1-5.6,33.4-8.2c13.3-3.2,24.7-4.8,34.2-4.8
			c17.6,0,30.5,4.9,38.6,14.7c2,3.2,4.3,6.4,6.7,9.5c2.4,3.2,5.7,4.8,9.7,4.8c6.1,0,9.1-2.2,9.1-6.5c0-3.7-2.9-8.5-8.7-14.3
			C1074.3,575.2,1066.8,570.5,1057.6,566.7z"/>
	</g>
	<path class="st2" d="M89.7,527.8c14.6-4.2,22.5-6.5,23.8-6.8c5.2-2.6,7.8-6.3,7.8-11.2c0-2.3-3.7-4.2-11.2-5.8
		c-10-1.9-18.5-5.7-25.3-11.2c-8.1-12-13.8-21.9-17-29.7c-7.5-10.7-15.2-16-23.3-16c-9.4,0-14.1,5.7-14.1,17c0,3.6,4.2,14.9,12.6,34
		c-8.8-1.6-20.7-10-36-25.3c-13.9-14.3-25.4-21.4-34.5-21.4c-4.9,0-9.6,2.3-14.1,6.8c-4.5,4.5-6.8,9.2-6.8,14.1
		c0,13.6,18,31.4,54,53.5c-7.5,1-13.8,1.5-19,1.5c-10,0-19.6-2.4-28.7-7.3c-3.6-2.3-12-8.3-25.3-18c-24-17.8-39.9-26.7-47.6-26.7
		c-4.9,0-9.4,1.6-13.6,4.9c-4.2,3.2-6.3,6.8-6.3,10.7c0,13.6,11.2,28.5,33.5,44.7c-1.6,1-3.2,1.5-4.9,1.5c-11-3.2-20.4-7-28.2-11.2
		c-3.9-2.2-8.7-6.1-14.2-11.5c0-0.2,0-0.4,0-0.6c0-2.6-1.2-3.9-3.5-3.9c-0.2,0-0.4,0.1-0.7,0.3c-2.9-3-6-6.4-9.3-10.1
		c-9.4-10.7-17.7-16-24.8-16c-10,0-15.1,6.5-15.1,19.4c0-1,0.8,4.2,2.4,15.6c-17.2-7.1-27.9-17.8-32.1-32.1c-0.6-2.6-2.4-4.9-5.3-7
		c-2.9-2.1-5.3-3.2-7.3-3.2c-12.3,0-18.5,3.9-18.5,11.7c0,1,0.3,2.5,1,4.6c0.7,2.1,1,3.8,1,5.1c0,1.9-0.8,3.7-2.4,5.3
		c-5.8-5.5-14.9-15.2-27.2-29.2c-7.1-7.8-11.8-11.7-14.1-11.7c-5.2,0-7.8,4.2-7.8,12.6v1.5c-6.2-4.5-13-12.3-20.4-23.3
		c-5.5-8.4-9.7-12.6-12.6-12.6c-1,0-3.4,0.8-7.3,2.4v6.8c0,4.5,5.8,12.2,17.5,22.8c14.9,14.3,34.2,27.1,57.9,38.4
		c28.1,13.7,60.9,23.8,98.5,30.2c-2.6,2.3-5.2,4.5-8,6.5c-17.9,13-32.6,19.5-44.2,19.5c-4.6,0-9.8-2.2-15.6-6.5
		c-5.8-4.3-8.8-6.5-9.1-6.5c-1.4,0-2.7,0.9-3.9,2.6v4.3c0,1.2,1.2,3.2,3.7,6.3c2.5,3,3.7,5.1,3.7,6.3c0,3.5-2.7,5.2-8.2,5.2
		c-16.2,0-28-6.2-35.5-18.6c-3.7-6.9-7.4-14-10.8-21.2c-4.3-6.3-9.8-9.5-16.5-9.5c-4.3,0-8.6,2.5-12.8,7.6
		c-4.2,5.1-6.3,10.6-6.3,16.7c0,4.9,2.2,12.4,6.5,22.5c-2.6,2-4.6,3-6.1,3c-11,0-21.8-3.7-32.5-11c-10.7-7.4-17.5-16-20.4-25.8
		c-3.2,0.3-5.5,1.6-6.9,3.9c-0.3,0.6-1.7,3.6-4.3,9.1h-3.9c-3.7-11.3-7.5-22.5-11.3-33.8c-3.2-7.5-8.9-11.3-17.3-11.3
		c-13.6,0-20.4,10.8-20.4,32.5c0,4.9,0.4,11.3,1.3,19.1l-2.2,0.9c-17-7.5-42.4-28.2-76.2-61.9c-1.4-1.4-4.2-2.2-8.2-2.2
		c-5.5,0-8.2,2.6-8.2,7.8c0,3.5,6.8,11.1,20.4,23c17.3,15,38.5,28.4,63.7,40.3c-28.3,0.9-43.7,1.9-46.3,3
		c-9.2,3.8-16.7,8.5-22.5,14.3c-5.8,5.8-8.7,10.5-8.7,14.3c0,4.3,3,6.5,9.1,6.5c4,0,7.3-1.6,9.7-4.8c2.5-3.2,4.7-6.3,6.7-9.5
		c8.1-9.8,20.9-14.7,38.6-14.7c9.5,0,20.9,1.6,34.2,4.8c11.3,2.6,22.4,5.3,33.4,8.2c39.8,8.7,71.5,13,94.9,13
		c39,0,73.5-8.1,103.5-24.3c19.1-10.3,35-22.8,47.8-37.7c30.7,4.6,64.4,6.9,101.2,6.9c33.8,0,67.5-3.1,101.2-9.4
		c0.8,2.2,2.7,4.6,5.7,7.1c4.2,3.5,7.7,5.3,10.6,5.3c2.2,0,4.3-1.2,6.2-3.6c1.9-2.4,2.9-5,2.9-7.9v-5.3c0-0.3,0-0.6-0.1-0.8
		C69.8,533.2,79.8,530.7,89.7,527.8z"/>
</g>
<g class="st1">
	<path class="st2" d="M1243.2,1111.7c-89.3,0-161.8,12.4-161.8,27.7c0,15.3,72.5,31.8,161.9,31.8s161.7-16.5,161.7-31.8
		C1405,1124.1,1332.5,1111.7,1243.2,1111.7z"/>
	<path class="st2" d="M1416.7,1116c0-15.3-87.5-43.9-176.2-43.3c-86.7,0.6-169.3,27.6-169.3,42.9c0,8,7.4,10.3,10.3,12.7
		c23.8-11.1,55.1-25.6,160.2-24c127.8,2,126.5,10.8,161.9,21.5C1404.3,1124.2,1416.7,1124.1,1416.7,1116z"/>
	<path class="st2" d="M1060.1,1038.6c9.8,0,17.7,7.9,17.7,17.7c0,8.9-6.6,16.2-15.1,17.5l4,29.4c171.9-86.9,353.1,0,353.1,0
		l5.5-28.7c-8.2-1.6-14.3-8.7-14.3-17.3c0-9.8,7.9-17.7,17.7-17.7c1.1,0,2.3,0.1,3.3,0.3l15.5-80.8l-53.6,55.5l-33.3-88.7
		l-59.2,73.9l-53.6-107.2l-64.7,107.2l-55.5-81.3l-27.7,101.7l-53.6-66.6l11.6,85.4C1058.6,1038.7,1059.3,1038.6,1060.1,1038.6z
		 M1345.6,1003.7c9.8,0,17.7,7.9,17.7,17.7c0,9.8-7.9,17.7-17.7,17.7c-9.8,0-17.7-7.9-17.7-17.7
		C1327.9,1011.6,1335.8,1003.7,1345.6,1003.7z M1244.1,990.9c9.8,0,17.7,7.9,17.7,17.7s-7.9,17.7-17.7,17.7
		c-9.8,0-17.7-7.9-17.7-17.7S1234.4,990.9,1244.1,990.9z M1141,1005.7c9.8,0,17.7,7.9,17.7,17.7c0,9.8-7.9,17.7-17.7,17.7
		c-9.8,0-17.7-7.9-17.7-17.7C1123.3,1013.6,1131.2,1005.7,1141,1005.7z"/>
	<path class="st2" d="M1100.6,1220.9c-3.5-3.2-6.8-4.8-10-4.8c-3.8,0-7.4,1.7-10.7,5.2c-3.3,3.5-5,7.1-5,10.9
		c0,4.8,1.7,8.7,5.2,11.9c3.5,3.2,7.6,4.8,12.4,4.8c3.5,0,6.6-1.8,9.3-5.5c2.7-3.6,4-7.7,4-12.1
		C1105.8,1227.5,1104.1,1224.1,1100.6,1220.9z"/>
	<path class="st2" d="M1137.2,1230.4c-4.1-3.2-8.9-4.8-14.3-4.8c-3.8,0-7.2,1.7-10.2,5.2c-3,3.5-4.5,7.6-4.5,12.4
		c0,4.4,1.7,8.5,5,12.1c3.3,3.6,6.9,5.5,10.7,5.5c4.8,0,9.2-2.1,13.3-6.2c4.1-4.1,6.2-8.4,6.2-12.8
		C1143.4,1237.4,1141.3,1233.6,1137.2,1230.4z"/>
	<path class="st2" d="M1056.9,1204.7c-8.6,0-12.8,4.9-12.8,14.7c0,9.2,5.5,13.8,16.6,13.8c9.5,0,14.3-4.8,14.3-14.3
		S1068.9,1204.7,1056.9,1204.7z"/>
	<path class="st2" d="M1247,1239.9c-4.8,0-8.9,2.3-12.4,6.9c-3.5,4.6-5.2,9.7-5.2,15.4c0,4.8,2.1,8.8,6.4,12.1c4.3,3.3,9,5,14,5
		c9.8,0,14.7-5.1,14.7-15.2c0-6.3-1.8-12-5.5-16.9C1255.5,1242.4,1251.4,1239.9,1247,1239.9z"/>
	<path class="st2" d="M1413.2,1219.2c-4-3.3-7.8-5-11.6-5c-7.9,0-11.9,4.3-11.9,12.8c0,9.8,5.7,14.7,17.1,14.7
		c8.2,0,12.4-4,12.4-11.9C1419.1,1226.1,1417.1,1222.6,1413.2,1219.2z"/>
	<path class="st2" d="M1369.2,1225.6c-9.2,0-13.8,4.8-13.8,14.3c0,5.4,1.7,9.9,5,13.5c3.3,3.6,7.4,5.5,12.1,5.5
		c2.5,0,5.5-1.6,8.8-4.8c3.3-3.2,5-6,5-8.6c0-5.1-1.8-9.7-5.5-13.8C1377.2,1227.7,1373.3,1225.6,1369.2,1225.6z"/>
	<path class="st2" d="M1163.3,1232.3c-3.8,0-7.4,2.3-10.7,6.9c-3.3,4.6-5,9.3-5,14c0,3.2,2.5,6.5,7.4,10c4.9,3.5,9.3,5.2,13.1,5.2
		c4.1,0,7.9-1.9,11.4-5.7c3.5-3.8,5.2-7.8,5.2-11.9C1184.7,1238.5,1177.6,1232.3,1163.3,1232.3z"/>
	<path class="st2" d="M1210.4,1238.5c-5.7,0-10.9,2.4-15.5,7.1c-4.6,4.8-6.9,9.8-6.9,15.2c0,4.1,2.1,7.7,6.2,10.7
		c4.1,3,9,4.5,14.7,4.5c10.8,0,16.2-6,16.2-18.1c0-5.4-1.5-10-4.5-13.8C1217.6,1240.4,1214.2,1238.5,1210.4,1238.5z"/>
	<path class="st2" d="M1288.4,1237.5c-5.1,0-9.6,2.1-13.5,6.4c-4,4.3-5.9,9.1-5.9,14.5c0,12.4,5.1,18.5,15.2,18.5
		c6.7,0,12.3-1.7,16.9-5c4.6-3.3,6.9-7.2,6.9-11.7c0-5.1-2.2-10.1-6.7-15.2C1296.8,1240.1,1292.5,1237.5,1288.4,1237.5z"/>
	<path class="st2" d="M1333.5,1232.3c-5.7,0-10.8,2-15.2,5.9c-4.4,4-6.7,8.8-6.7,14.5c0,3.8,2.2,7.5,6.7,11.2
		c4.4,3.6,8.9,5.5,13.3,5.5c12.4,0,18.5-5.5,18.5-16.6c0-4.4-1.7-8.9-5.2-13.6C1341.4,1234.6,1337.6,1232.3,1333.5,1232.3z"/>
	<g>
		<path class="st2" d="M1436.7,1206.2c-3.8,0-6.4,0.7-7.8,2.1c-1.4,1.4-2.8,5.2-4,11.2c1.3,5.7,5.2,8.6,11.9,8.6
			c8.9,0,13.3-3.8,13.3-11.4C1450,1209.6,1445.6,1206.2,1436.7,1206.2z"/>
		<path class="st2" d="M2026.9,1232.8c-2.6-1.1-17.9-2.1-45.9-3c24.9-11.7,45.9-25,63-39.9c13.4-11.7,20.1-19.3,20.1-22.7
			c0-5.1-2.7-7.7-8.1-7.7c-4,0-6.7,0.7-8.1,2.1c-33.4,33.4-58.6,53.9-75.4,61.3l-2.1-0.9c0.9-7.7,1.3-14,1.3-18.9
			c0-21.4-6.7-32.1-20.1-32.1c-8.3,0-14,3.7-17.1,11.1c-3.7,11.1-7.4,22.3-11.1,33.4h-3.9c-2.6-5.4-4-8.4-4.3-9
			c-1.4-2.3-3.7-3.6-6.9-3.9c-2.9,9.7-9.6,18.2-20.1,25.5c-10.6,7.3-21.3,10.9-32.1,10.9c-1.4,0-3.4-1-6-3c4.3-10,6.4-17.4,6.4-22.3
			c0-6-2.1-11.5-6.2-16.5c-4.1-5-8.4-7.5-12.6-7.5c-6.6,0-12,3.2-16.3,9.4c-3.4,7.1-7,14.1-10.7,21c-7.4,12.3-19.1,18.4-35.1,18.4
			c-5.4,0-8.1-1.7-8.1-5.1c0-1.1,1.2-3.2,3.6-6.2c2.4-3,3.6-5.1,3.6-6.2v-4.3c-1.1-1.7-2.4-2.6-3.9-2.6c-0.3,0-3.3,2.1-9,6.4
			c-5.7,4.3-10.9,6.4-15.4,6.4c-11.4,0-26-6.4-43.7-19.3c-0.7-0.5-1.4-1.1-2.2-1.6c26.5-6.2,50.2-14.4,71.3-24.6
			c23.4-11.2,42.5-23.9,57.2-38c11.5-10.6,17.3-18.1,17.3-22.6v-6.7c-3.8-1.6-6.3-2.4-7.2-2.4c-2.9,0-7.1,4.2-12.5,12.5
			c-7.4,10.9-14.1,18.6-20.2,23.1v-1.4c0-8.3-2.6-12.5-7.7-12.5c-2.2,0-6.9,3.8-14,11.5c-12.2,13.8-21.2,23.4-26.9,28.9
			c-1.6-1.6-2.4-3.4-2.4-5.3c0-1.3,0.3-3,1-5c0.6-2.1,1-3.6,1-4.6c0-7.7-6.1-11.5-18.3-11.5c-1.9,0-4.3,1-7.2,3.1
			c-2.9,2.1-4.7,4.4-5.3,7c-4.2,14.1-14.8,24.7-31.7,31.8c1.6-11.2,2.4-16.4,2.4-15.4c0-12.8-5-19.2-14.9-19.2
			c-7.1,0-15.2,5.3-24.5,15.9c-11.5,13.2-20.7,21.6-27.4,25.5c-7.7,4.2-17,7.9-27.9,11.1c-1.6,0-3.2-0.5-4.8-1.4
			c22.1-16,33.2-30.8,33.2-44.3c0-3.8-2.1-7.4-6.3-10.6c-4.2-3.2-8.7-4.8-13.5-4.8c-7.7,0-23.4,8.8-47.1,26.5
			c-13.2,9.6-21.5,15.6-25,17.8c-9,4.8-18.4,7.2-28.4,7.2c-5.1,0-11.4-0.5-18.8-1.4c35.6-21.8,53.4-39.4,53.4-52.9
			c0-4.8-2.2-9.5-6.7-13.9c-4.5-4.5-9.1-6.7-13.9-6.7c-9,0-20.4,7.1-34.2,21.2c-15.1,15.1-26.9,23.4-35.6,25
			c8.3-18.9,12.5-30.1,12.5-33.7c0-11.2-4.6-16.8-13.9-16.8c-8,0-15.7,5.3-23.1,15.9c-3.2,7.7-8.8,17.5-16.8,29.3
			c-6.7,5.5-15.1,9.1-25,11.1c-7.4,1.6-11.1,3.5-11.1,5.8c0,4.8,2.6,8.5,7.7,11.1c1.3,0.3,9.1,2.6,23.6,6.7
			c14.9,4.2,29.7,7.9,44.6,10.9c1.8,1.3,4.3,2,7.4,2c0.8,0,1.5,0,2.2-0.1c33.6,6.2,67.1,9.4,100.7,9.4c46.8,0,88.7-3.8,125.6-11.3
			c11.7,12.3,25.8,22.9,42.3,31.7c29.7,16,63.9,24,102.4,24c23.1,0,54.4-4.3,93.9-12.9c10.9-2.9,21.9-5.6,33-8.1
			c13.1-3.1,24.4-4.7,33.9-4.7c17.4,0,30.1,4.9,38.1,14.6c2,3.2,4.2,6.3,6.6,9.4c2.4,3.2,5.6,4.7,9.6,4.7c6,0,9-2.1,9-6.4
			c0-3.7-2.9-8.4-8.6-14.1C2043.5,1241.3,2036.1,1236.6,2026.9,1232.8z"/>
	</g>
	<path class="st2" d="M1069.3,1194.4c14.4-4.2,22.3-6.4,23.6-6.7c5.1-2.6,7.7-6.3,7.7-11.1c0-2.2-3.7-4.2-11.1-5.8
		c-9.9-1.9-18.3-5.6-25-11.1c-8-11.9-13.6-21.6-16.8-29.3c-7.4-10.6-15.1-15.9-23.1-15.9c-9.3,0-13.9,5.6-13.9,16.8
		c0,3.5,4.2,14.8,12.5,33.7c-8.7-1.6-20.5-9.9-35.6-25c-13.8-14.1-25.2-21.2-34.2-21.2c-4.8,0-9.5,2.3-13.9,6.7
		c-4.5,4.5-6.7,9.1-6.7,13.9c0,13.5,17.8,31.1,53.4,52.9c-7.4,1-13.6,1.4-18.8,1.4c-9.9,0-19.4-2.4-28.4-7.2
		c-3.5-2.2-11.9-8.2-25-17.8c-23.7-17.6-39.4-26.5-47.1-26.5c-4.8,0-9.3,1.6-13.5,4.8c-4.2,3.2-6.3,6.7-6.3,10.6
		c0,13.5,11.1,28.2,33.2,44.3c-1.6,1-3.2,1.4-4.8,1.4c-10.9-3.2-20.2-6.9-27.9-11.1c-3.9-2.2-8.6-6-14.1-11.3c0-0.2,0-0.4,0-0.6
		c0-2.6-1.1-3.9-3.4-3.9c-0.2,0-0.4,0.1-0.7,0.3c-2.9-3-5.9-6.3-9.2-10c-9.3-10.6-17.5-15.9-24.5-15.9c-9.9,0-14.9,6.4-14.9,19.2
		c0-1,0.8,4.2,2.4,15.4c-17-7.1-27.6-17.6-31.7-31.8c-0.6-2.6-2.4-4.9-5.3-7c-2.9-2.1-5.3-3.1-7.2-3.1c-12.2,0-18.3,3.8-18.3,11.5
		c0,1,0.3,2.5,1,4.6c0.6,2.1,1,3.8,1,5.1c0,1.9-0.8,3.7-2.4,5.3c-5.8-5.4-14.7-15.1-26.9-28.9c-7-7.7-11.7-11.5-14-11.5
		c-5.1,0-7.7,4.2-7.7,12.5v1.4c-6.1-4.5-12.8-12.2-20.2-23.1c-5.4-8.3-9.6-12.5-12.5-12.5c-1,0-3.4,0.8-7.2,2.4v6.7
		c0,4.5,5.8,12,17.3,22.6c14.8,14.1,33.8,26.8,57.2,38c27.8,13.6,60.3,23.5,97.5,29.9c-2.5,2.3-5.2,4.5-7.9,6.4
		c-17.7,12.9-32.3,19.3-43.7,19.3c-4.6,0-9.7-2.1-15.4-6.4c-5.7-4.3-8.7-6.4-9-6.4c-1.4,0-2.7,0.9-3.9,2.6v4.3
		c0,1.1,1.2,3.2,3.6,6.2c2.4,3,3.6,5.1,3.6,6.2c0,3.4-2.7,5.1-8.1,5.1c-16,0-27.7-6.1-35.1-18.4c-3.7-6.9-7.3-13.9-10.7-21
		c-4.3-6.3-9.7-9.4-16.3-9.4c-4.3,0-8.5,2.5-12.6,7.5c-4.1,5-6.2,10.5-6.2,16.5c0,4.9,2.1,12.3,6.4,22.3c-2.6,2-4.6,3-6,3
		c-10.9,0-21.6-3.6-32.1-10.9c-10.6-7.3-17.3-15.8-20.1-25.5c-3.1,0.3-5.4,1.6-6.9,3.9c-0.3,0.6-1.7,3.6-4.3,9H575
		c-3.7-11.1-7.4-22.3-11.1-33.4c-3.1-7.4-8.9-11.1-17.1-11.1c-13.4,0-20.1,10.7-20.1,32.1c0,4.9,0.4,11.1,1.3,18.9l-2.1,0.9
		c-16.9-7.4-42-27.9-75.4-61.3c-1.4-1.4-4.1-2.1-8.1-2.1c-5.4,0-8.1,2.6-8.1,7.7c0,3.4,6.7,11,20.1,22.7
		c17.1,14.9,38.1,28.1,63,39.9c-28,0.9-43.3,1.9-45.9,3c-9.1,3.7-16.6,8.4-22.3,14.1c-5.7,5.7-8.6,10.4-8.6,14.1c0,4.3,3,6.4,9,6.4
		c4,0,7.2-1.6,9.6-4.7c2.4-3.1,4.6-6.3,6.6-9.4c8-9.7,20.7-14.6,38.1-14.6c9.4,0,20.7,1.6,33.9,4.7c11.1,2.6,22.1,5.3,33,8.1
		c39.4,8.6,70.7,12.9,93.9,12.9c38.6,0,72.7-8,102.4-24c18.9-10.2,34.6-22.6,47.3-37.3c30.4,4.6,63.7,6.8,100.1,6.8
		c33.4,0,66.8-3.1,100.2-9.3c0.8,2.2,2.7,4.5,5.7,7c4.1,3.5,7.6,5.2,10.5,5.2c2.2,0,4.3-1.2,6.2-3.6c1.9-2.4,2.9-5,2.9-7.8v-5.2
		c0-0.3,0-0.6-0.1-0.8C1049.6,1199.7,1059.4,1197.2,1069.3,1194.4z"/>
</g>
<g>
	<path class="st3" d="M245.3,1751.1c-91.5,0-165.7,12.7-165.7,28.4c0,15.7,74.3,32.6,165.8,32.6s165.6-16.9,165.6-32.6
		C411,1763.8,336.8,1751.1,245.3,1751.1z"/>
	<path class="st3" d="M423,1755.5c0-15.7-89.6-44.9-180.5-44.3c-88.8,0.6-173.4,28.2-173.4,43.9c0,8.2,7.6,10.5,10.5,13
		c24.4-11.4,56.4-26.2,164.1-24.6c130.9,2,129.6,11.1,165.8,22C410.4,1763.9,423,1763.8,423,1755.5z"/>
	<path class="st3" d="M57.7,1676.2c10,0,18.1,8.1,18.1,18.1c0,9.1-6.7,16.6-15.4,17.9l4.1,30.1c176.1-89,361.7,0,361.7,0l5.6-29.4
		c-8.4-1.6-14.7-8.9-14.7-17.8c0-10,8.1-18.1,18.1-18.1c1.2,0,2.3,0.1,3.4,0.3l15.9-82.8l-54.9,56.8l-34.1-90.9l-60.6,75.8
		L250,1526.4l-66.3,109.8l-56.8-83.3l-28.4,104.2l-54.9-68.2l11.9,87.5C56.2,1676.3,57,1676.2,57.7,1676.2z M350.2,1640.4
		c10,0,18.1,8.1,18.1,18.1c0,10-8.1,18.1-18.1,18.1c-10,0-18.1-8.1-18.1-18.1C332.1,1648.5,340.2,1640.4,350.2,1640.4z
		 M246.3,1627.4c10,0,18.1,8.1,18.1,18.1c0,10-8.1,18.1-18.1,18.1c-10,0-18.1-8.1-18.1-18.1C228.2,1635.5,236.3,1627.4,246.3,1627.4
		z M140.6,1642.5c10,0,18.1,8.1,18.1,18.1c0,10-8.1,18.1-18.1,18.1c-10,0-18.1-8.1-18.1-18.1
		C122.5,1650.6,130.6,1642.5,140.6,1642.5z"/>
	<path class="st3" d="M99.2,1863c-3.6-3.2-7-4.9-10.2-4.9c-3.9,0-7.5,1.8-11,5.4c-3.4,3.6-5.1,7.3-5.1,11.2c0,4.9,1.8,8.9,5.4,12.2
		c3.6,3.2,7.8,4.9,12.7,4.9c3.6,0,6.7-1.9,9.5-5.6c2.8-3.7,4.1-7.9,4.1-12.4C104.6,1869.8,102.8,1866.2,99.2,1863z"/>
	<path class="st3" d="M136.7,1872.7c-4.2-3.2-9.1-4.9-14.6-4.9c-3.9,0-7.4,1.8-10.5,5.4c-3.1,3.6-4.6,7.8-4.6,12.7
		c0,4.6,1.7,8.7,5.1,12.4c3.4,3.7,7.1,5.6,11,5.6c4.9,0,9.4-2.1,13.6-6.3c4.2-4.2,6.3-8.6,6.3-13.2
		C143,1879.8,140.9,1875.9,136.7,1872.7z"/>
	<path class="st3" d="M54.4,1846.4c-8.8,0-13.1,5-13.1,15.1c0,9.4,5.7,14.1,17,14.1c9.7,0,14.6-4.9,14.6-14.6
		S66.8,1846.4,54.4,1846.4z"/>
	<path class="st3" d="M249.2,1882.4c-4.9,0-9.1,2.4-12.7,7.1c-3.6,4.7-5.4,10-5.4,15.8c0,4.9,2.2,9,6.6,12.4
		c4.4,3.4,9.2,5.1,14.4,5.1c10.1,0,15.1-5.2,15.1-15.6c0-6.5-1.9-12.3-5.6-17.3C257.9,1884.9,253.8,1882.4,249.2,1882.4z"/>
	<path class="st3" d="M419.4,1861.3c-4.1-3.4-8-5.1-11.9-5.1c-8.1,0-12.2,4.4-12.2,13.1c0,10.1,5.8,15.1,17.5,15.1
		c8.4,0,12.7-4.1,12.7-12.2C425.5,1868.3,423.5,1864.7,419.4,1861.3z"/>
	<path class="st3" d="M374.4,1867.8c-9.4,0-14.1,4.9-14.1,14.6c0,5.5,1.7,10.2,5.1,13.9c3.4,3.7,7.5,5.6,12.4,5.6
		c2.6,0,5.6-1.6,9-4.9c3.4-3.2,5.1-6.2,5.1-8.8c0-5.2-1.9-9.9-5.6-14.1C382.6,1869.9,378.6,1867.8,374.4,1867.8z"/>
	<path class="st3" d="M163.5,1874.6c-3.9,0-7.5,2.4-11,7.1c-3.4,4.7-5.1,9.5-5.1,14.4c0,3.2,2.5,6.7,7.5,10.2
		c5,3.6,9.5,5.4,13.4,5.4c4.2,0,8.1-1.9,11.7-5.8c3.6-3.9,5.4-8,5.4-12.2C185.4,1881,178.1,1874.6,163.5,1874.6z"/>
	<path class="st3" d="M211.7,1881c-5.8,0-11.1,2.4-15.8,7.3c-4.7,4.9-7.1,10.1-7.1,15.6c0,4.2,2.1,7.9,6.3,11
		c4.2,3.1,9.3,4.6,15.1,4.6c11,0,16.6-6.2,16.6-18.5c0-5.5-1.5-10.2-4.6-14.1C219.1,1882.9,215.6,1881,211.7,1881z"/>
	<path class="st3" d="M291.6,1880c-5.2,0-9.8,2.2-13.9,6.6c-4.1,4.4-6.1,9.3-6.1,14.8c0,12.7,5.2,19,15.6,19
		c6.8,0,12.6-1.7,17.3-5.1c4.7-3.4,7.1-7.4,7.1-11.9c0-5.2-2.3-10.4-6.8-15.6C300.2,1882.6,295.8,1880,291.6,1880z"/>
	<path class="st3" d="M337.8,1874.6c-5.8,0-11,2-15.6,6.1c-4.5,4.1-6.8,9-6.8,14.9c0,3.9,2.3,7.7,6.8,11.4c4.6,3.7,9.1,5.6,13.6,5.6
		c12.7,0,19-5.7,19-17c0-4.5-1.8-9.2-5.4-13.9C346,1877,342.1,1874.6,337.8,1874.6z"/>
	<g>
		<path class="st3" d="M443.5,1847.9c-3.9,0-6.6,0.7-8,2.2c-1.5,1.5-2.8,5.3-4.1,11.4c1.3,5.8,5.4,8.8,12.2,8.8
			c9.1,0,13.6-3.9,13.6-11.7C457.1,1851.4,452.6,1847.9,443.5,1847.9z"/>
		<path class="st3" d="M1048.2,1875.2c-2.6-1.2-18.3-2.2-47-3.1c25.5-12,47-25.6,64.5-40.8c13.8-12,20.6-19.8,20.6-23.3
			c0-5.3-2.8-7.9-8.3-7.9c-4.1,0-6.9,0.7-8.3,2.2c-34.2,34.2-60,55.2-77.3,62.8l-2.2-0.9c0.9-7.9,1.3-14.3,1.3-19.3
			c0-21.9-6.9-32.9-20.6-32.9c-8.5,0-14.3,3.8-17.6,11.4c-3.8,11.4-7.6,22.8-11.4,34.2h-4c-2.6-5.6-4.1-8.6-4.4-9.2
			c-1.5-2.3-3.8-3.7-7-4c-2.9,10-9.8,18.7-20.6,26.1c-10.8,7.5-21.8,11.2-32.9,11.2c-1.5,0-3.5-1-6.1-3.1
			c4.4-10.2,6.6-17.9,6.6-22.8c0-6.1-2.1-11.8-6.4-16.9c-4.2-5.1-8.6-7.7-13-7.7c-6.7,0-12.3,3.2-16.7,9.7
			c-3.5,7.3-7.2,14.5-11,21.5c-7.6,12.6-19.6,18.9-36,18.9c-5.6,0-8.3-1.8-8.3-5.3c0-1.2,1.2-3.3,3.7-6.4c2.5-3.1,3.7-5.2,3.7-6.4
			v-4.4c-1.2-1.8-2.5-2.6-4-2.6c-0.3,0-3.4,2.2-9.2,6.6c-5.9,4.4-11.1,6.6-15.8,6.6c-11.7,0-26.6-6.6-44.8-19.8
			c-0.7-0.5-1.5-1.1-2.2-1.7c27.1-6.3,51.5-14.7,73-25.2c24-11.5,43.5-24.5,58.6-38.9c11.8-10.8,17.7-18.6,17.7-23.2v-6.9
			c-3.9-1.6-6.4-2.5-7.4-2.5c-3,0-7.2,4.3-12.8,12.8c-7.6,11.2-14.5,19.1-20.7,23.7v-1.5c0-8.5-2.6-12.8-7.9-12.8
			c-2.3,0-7.1,3.9-14.3,11.8c-12.5,14.1-21.7,24-27.6,29.6c-1.6-1.6-2.5-3.4-2.5-5.4c0-1.3,0.3-3,1-5.2c0.7-2.1,1-3.7,1-4.7
			c0-7.9-6.2-11.8-18.7-11.8c-2,0-4.4,1.1-7.4,3.2c-3,2.1-4.8,4.5-5.4,7.1c-4.3,14.5-15.1,25.3-32.5,32.5
			c1.6-11.5,2.5-16.8,2.5-15.8c0-13.1-5.1-19.7-15.3-19.7c-7.2,0-15.6,5.4-25.1,16.3c-11.8,13.5-21.2,22.2-28.1,26.1
			c-7.9,4.3-17.4,8.1-28.6,11.3c-1.7,0-3.3-0.5-4.9-1.5c22.7-16.4,34-31.5,34-45.3c0-3.9-2.1-7.6-6.4-10.8
			c-4.3-3.3-8.9-4.9-13.8-4.9c-7.9,0-24,9-48.3,27.1c-13.5,9.9-22,15.9-25.6,18.2c-9.2,4.9-18.9,7.4-29.1,7.4
			c-5.3,0-11.7-0.5-19.2-1.5c36.5-22.3,54.7-40.4,54.7-54.2c0-4.9-2.3-9.7-6.9-14.3c-4.6-4.6-9.4-6.9-14.3-6.9
			c-9.2,0-20.9,7.2-35,21.7c-15.4,15.4-27.6,24-36.5,25.6c8.5-19.4,12.8-30.9,12.8-34.5c0-11.5-4.8-17.2-14.3-17.2
			c-8.2,0-16.1,5.4-23.7,16.3c-3.3,7.9-9,17.9-17.2,30.1c-6.9,5.6-15.4,9.4-25.6,11.3c-7.6,1.7-11.3,3.6-11.3,5.9
			c0,4.9,2.6,8.7,7.9,11.3c1.3,0.3,9.4,2.6,24.1,6.9c15.2,4.4,30.5,8.1,45.7,11.2c1.9,1.3,4.4,2,7.6,2c0.8,0,1.5,0,2.3-0.1
			c34.4,6.4,68.8,9.6,103.2,9.6c48,0,90.9-3.9,128.7-11.6c12,12.6,26.4,23.4,43.3,32.5c30.4,16.4,65.4,24.6,104.9,24.6
			c23.7,0,55.8-4.4,96.1-13.2c11.1-2.9,22.4-5.7,33.8-8.3c13.5-3.2,25-4.8,34.7-4.8c17.8,0,30.9,5,39.1,14.9c2,3.2,4.3,6.4,6.8,9.7
			c2.5,3.2,5.8,4.8,9.9,4.8c6.1,0,9.2-2.2,9.2-6.6c0-3.8-2.9-8.6-8.8-14.5C1065.1,1883.8,1057.5,1879,1048.2,1875.2z"/>
	</g>
	<path class="st3" d="M67.2,1835.8c14.8-4.3,22.8-6.6,24.1-6.9c5.3-2.6,7.9-6.4,7.9-11.3c0-2.3-3.8-4.3-11.3-5.9
		c-10.2-2-18.7-5.7-25.6-11.3c-8.2-12.2-14-22.2-17.2-30.1c-7.6-10.8-15.4-16.3-23.7-16.3c-9.5,0-14.3,5.7-14.3,17.2
		c0,3.6,4.3,15.1,12.8,34.5c-8.9-1.6-21-10.2-36.5-25.6c-14.1-14.5-25.8-21.7-35-21.7c-4.9,0-9.7,2.3-14.3,6.9
		c-4.6,4.6-6.9,9.4-6.9,14.3c0,13.8,18.2,31.9,54.7,54.2c-7.6,1-14,1.5-19.2,1.5c-10.2,0-19.9-2.5-29.1-7.4
		c-3.6-2.3-12.2-8.4-25.6-18.2c-24.3-18.1-40.4-27.1-48.3-27.1c-4.9,0-9.5,1.7-13.8,4.9c-4.3,3.3-6.4,6.9-6.4,10.8
		c0,13.8,11.3,28.9,34,45.3c-1.6,1-3.3,1.5-4.9,1.5c-11.2-3.3-20.7-7.1-28.6-11.3c-4-2.3-8.8-6.2-14.4-11.6c0-0.2,0-0.4,0-0.6
		c0-2.6-1.2-3.9-3.5-3.9c-0.2,0-0.4,0.1-0.7,0.3c-2.9-3-6.1-6.5-9.4-10.3c-9.5-10.8-17.9-16.3-25.1-16.3c-10.2,0-15.3,6.6-15.3,19.7
		c0-1,0.8,4.3,2.5,15.8c-17.4-7.2-28.2-18.1-32.5-32.5c-0.7-2.6-2.5-5-5.4-7.1c-3-2.1-5.4-3.2-7.4-3.2c-12.5,0-18.7,3.9-18.7,11.8
		c0,1,0.3,2.5,1,4.7c0.7,2.1,1,3.9,1,5.2c0,2-0.8,3.8-2.5,5.4c-5.9-5.6-15.1-15.4-27.6-29.6c-7.2-7.9-12-11.8-14.3-11.8
		c-5.3,0-7.9,4.3-7.9,12.8v1.5c-6.2-4.6-13.1-12.5-20.7-23.7c-5.6-8.5-9.9-12.8-12.8-12.8c-1,0-3.4,0.8-7.4,2.5v6.9
		c0,4.6,5.9,12.3,17.7,23.2c15.1,14.5,34.7,27.4,58.6,38.9c28.5,13.9,61.8,24.1,99.9,30.7c-2.6,2.4-5.3,4.6-8.1,6.6
		c-18.1,13.2-33.1,19.8-44.8,19.8c-4.7,0-9.9-2.2-15.8-6.6c-5.9-4.4-8.9-6.6-9.2-6.6c-1.5,0-2.8,0.9-4,2.6v4.4
		c0,1.2,1.2,3.3,3.7,6.4c2.5,3.1,3.7,5.2,3.7,6.4c0,3.5-2.8,5.3-8.3,5.3c-16.4,0-28.4-6.3-36-18.9c-3.8-7-7.5-14.2-11-21.5
		c-4.4-6.4-9.9-9.7-16.7-9.7c-4.4,0-8.7,2.6-13,7.7c-4.2,5.1-6.4,10.8-6.4,16.9c0,5,2.2,12.6,6.6,22.8c-2.6,2-4.7,3.1-6.1,3.1
		c-11.1,0-22.1-3.7-32.9-11.2c-10.8-7.5-17.7-16.2-20.6-26.1c-3.2,0.3-5.6,1.6-7,4c-0.3,0.6-1.8,3.7-4.4,9.2h-4
		c-3.8-11.4-7.6-22.8-11.4-34.2c-3.2-7.6-9.1-11.4-17.6-11.4c-13.8,0-20.6,11-20.6,32.9c0,5,0.4,11.4,1.3,19.3l-2.2,0.9
		c-17.3-7.6-43-28.5-77.3-62.8c-1.5-1.5-4.2-2.2-8.3-2.2c-5.6,0-8.3,2.6-8.3,7.9c0,3.5,6.9,11.3,20.6,23.3
		c17.6,15.2,39.1,28.8,64.5,40.8c-28.7,0.9-44.3,1.9-47,3.1c-9.4,3.8-17,8.6-22.8,14.5c-5.9,5.9-8.8,10.7-8.8,14.5
		c0,4.4,3.1,6.6,9.2,6.6c4.1,0,7.4-1.6,9.9-4.8c2.5-3.2,4.8-6.4,6.8-9.7c8.2-9.9,21.2-14.9,39.1-14.9c9.7,0,21.2,1.6,34.7,4.8
		c11.4,2.6,22.7,5.4,33.8,8.3c40.4,8.8,72.4,13.2,96.1,13.2c39.5,0,74.5-8.2,104.9-24.6c19.4-10.4,35.5-23.2,48.5-38.2
		c31.1,4.7,65.3,7,102.5,7c34.2,0,68.4-3.2,102.6-9.5c0.9,2.2,2.8,4.6,5.8,7.2c4.2,3.6,7.8,5.4,10.7,5.4c2.3,0,4.4-1.2,6.3-3.7
		c1.9-2.4,2.9-5.1,2.9-8v-5.4c0-0.3,0-0.6-0.1-0.8C46.9,1841.3,57.1,1838.7,67.2,1835.8z"/>
</g>
<g class="st1">
	<path class="st2" d="M1244.1,2573.3c-97,0-175.7,13.5-175.7,30.1c0,16.6,78.8,34.6,175.8,34.6c97,0,175.6-17.9,175.6-34.6
		C1419.7,2586.8,1341.1,2573.3,1244.1,2573.3z"/>
	<path class="st2" d="M1432.4,2577.9c0-16.6-95-47.6-191.4-47c-94.1,0.6-183.8,29.9-183.8,46.6c0,8.6,8,11.2,11.2,13.8
		c25.9-12,59.8-27.8,174-26c138.7,2.2,137.4,11.8,175.8,23.4C1419.1,2586.8,1432.4,2586.7,1432.4,2577.9z"/>
	<path class="st2" d="M1045.2,2493.9c10.6,0,19.2,8.6,19.2,19.2c0,9.6-7.1,17.6-16.4,19l4.3,31.9c186.7-94.4,383.5,0,383.5,0l6-31.1
		c-8.9-1.7-15.6-9.5-15.6-18.8c0-10.6,8.6-19.2,19.2-19.2c1.2,0,2.5,0.1,3.6,0.4l16.9-87.8l-58.2,60.2l-36.1-96.4l-64.2,80.3
		l-58.2-116.4l-70.3,116.4l-60.2-88.3l-30.1,110.4l-58.2-72.3l12.6,92.7C1043.6,2493.9,1044.4,2493.9,1045.2,2493.9z M1355.3,2456
		c10.6,0,19.2,8.6,19.2,19.2c0,10.6-8.6,19.2-19.2,19.2c-10.6,0-19.2-8.6-19.2-19.2C1336.1,2464.6,1344.7,2456,1355.3,2456z
		 M1245.1,2442.1c10.6,0,19.2,8.6,19.2,19.2c0,10.6-8.6,19.2-19.2,19.2c-10.6,0-19.2-8.6-19.2-19.2
		C1225.9,2450.7,1234.5,2442.1,1245.1,2442.1z M1133.1,2458.2c10.6,0,19.2,8.6,19.2,19.2c0,10.6-8.6,19.2-19.2,19.2
		c-10.6,0-19.2-8.6-19.2-19.2C1113.9,2466.8,1122.5,2458.2,1133.1,2458.2z"/>
	<path class="st2" d="M1089.2,2691.9c-3.8-3.4-7.4-5.2-10.8-5.2c-4.1,0-8,1.9-11.6,5.7c-3.6,3.8-5.4,7.7-5.4,11.9
		c0,5.2,1.9,9.5,5.7,12.9c3.8,3.4,8.3,5.2,13.4,5.2c3.8,0,7.1-2,10.1-5.9c2.9-3.9,4.4-8.3,4.4-13.2
		C1094.9,2699.1,1093,2695.3,1089.2,2691.9z"/>
	<path class="st2" d="M1128.9,2702.2c-4.5-3.4-9.6-5.2-15.5-5.2c-4.1,0-7.8,1.9-11.1,5.7c-3.3,3.8-4.9,8.3-4.9,13.4
		c0,4.8,1.8,9.2,5.4,13.2c3.6,4,7.5,5.9,11.6,5.9c5.2,0,10-2.2,14.5-6.7c4.5-4.5,6.7-9.1,6.7-13.9
		C1135.7,2709.8,1133.4,2705.6,1128.9,2702.2z"/>
	<path class="st2" d="M1041.7,2674.3c-9.3,0-13.9,5.3-13.9,16c0,10,6,15,18.1,15c10.3,0,15.5-5.2,15.5-15.5
		C1061.3,2679.5,1054.8,2674.3,1041.7,2674.3z"/>
	<path class="st2" d="M1248.2,2712.5c-5.2,0-9.6,2.5-13.4,7.5c-3.8,5-5.7,10.6-5.7,16.8c0,5.2,2.3,9.6,7,13.2
		c4.6,3.6,9.7,5.4,15.2,5.4c10.7,0,16-5.5,16-16.5c0-6.9-2-13-5.9-18.3C1257.4,2715.2,1253,2712.5,1248.2,2712.5z"/>
	<path class="st2" d="M1428.6,2690c-4.3-3.6-8.5-5.4-12.6-5.4c-8.6,0-12.9,4.6-12.9,13.9c0,10.7,6.2,16,18.6,16
		c8.9,0,13.4-4.3,13.4-12.9C1435.1,2697.5,1432.9,2693.7,1428.6,2690z"/>
	<path class="st2" d="M1380.9,2697c-10,0-15,5.2-15,15.5c0,5.9,1.8,10.8,5.4,14.7c3.6,4,8,5.9,13.2,5.9c2.8,0,5.9-1.7,9.6-5.2
		c3.6-3.4,5.4-6.5,5.4-9.3c0-5.5-2-10.5-5.9-15C1389.6,2699.3,1385.3,2697,1380.9,2697z"/>
	<path class="st2" d="M1157.3,2704.2c-4.1,0-8,2.5-11.6,7.5c-3.6,5-5.4,10.1-5.4,15.2c0,3.4,2.7,7.1,8,10.8
		c5.3,3.8,10.1,5.7,14.2,5.7c4.5,0,8.6-2.1,12.4-6.2c3.8-4.1,5.7-8.4,5.7-12.9C1180.6,2711,1172.8,2704.2,1157.3,2704.2z"/>
	<path class="st2" d="M1208.4,2711c-6.2,0-11.8,2.6-16.8,7.7c-5,5.2-7.5,10.7-7.5,16.5c0,4.5,2.2,8.3,6.7,11.6
		c4.5,3.3,9.8,4.9,16,4.9c11.7,0,17.6-6.5,17.6-19.6c0-5.8-1.6-10.8-4.9-15C1216.3,2713,1212.6,2711,1208.4,2711z"/>
	<path class="st2" d="M1293.1,2709.9c-5.5,0-10.4,2.3-14.7,7c-4.3,4.6-6.5,9.9-6.5,15.7c0,13.4,5.5,20.1,16.5,20.1
		c7.2,0,13.3-1.8,18.3-5.4c5-3.6,7.5-7.8,7.5-12.7c0-5.5-2.4-11-7.2-16.5C1302.2,2712.7,1297.6,2709.9,1293.1,2709.9z"/>
	<path class="st2" d="M1342.2,2704.2c-6.2,0-11.7,2.2-16.5,6.5c-4.8,4.3-7.2,9.6-7.2,15.7c0,4.1,2.4,8.2,7.2,12.1
		c4.8,4,9.6,5.9,14.5,5.9c13.4,0,20.1-6,20.1-18.1c0-4.8-1.9-9.7-5.7-14.7C1350.8,2706.7,1346.6,2704.2,1342.2,2704.2z"/>
	<g>
		<path class="st2" d="M1454.2,2675.8c-4.1,0-7,0.8-8.5,2.3c-1.6,1.5-3,5.6-4.4,12.1c1.4,6.2,5.7,9.3,12.9,9.3
			c9.6,0,14.5-4.1,14.5-12.4C1468.6,2679.6,1463.8,2675.8,1454.2,2675.8z"/>
		<path class="st2" d="M2095.2,2704.8c-2.8-1.2-19.4-2.3-49.8-3.3c27-12.7,49.8-27.1,68.4-43.3c14.6-12.7,21.9-20.9,21.9-24.7
			c0-5.6-3-8.4-8.8-8.4c-4.3,0-7.3,0.8-8.8,2.3c-36.3,36.3-63.6,58.5-81.9,66.6l-2.3-0.9c0.9-8.4,1.4-15.2,1.4-20.5
			c0-23.3-7.3-34.9-21.9-34.9c-9,0-15.2,4-18.6,12.1c-4,12.1-8.1,24.2-12.1,36.3h-4.2c-2.8-5.9-4.3-9.1-4.7-9.8
			c-1.6-2.5-4-3.9-7.4-4.2c-3.1,10.6-10.4,19.8-21.9,27.7c-11.5,7.9-23.1,11.9-34.9,11.9c-1.6,0-3.7-1.1-6.5-3.3
			c4.7-10.9,7-18.9,7-24.2c0-6.5-2.3-12.5-6.7-17.9c-4.5-5.4-9.1-8.1-13.7-8.1c-7.1,0-13,3.4-17.7,10.2c-3.7,7.8-7.6,15.4-11.6,22.8
			c-8.1,13.3-20.8,20-38.2,20c-5.9,0-8.8-1.9-8.8-5.6c0-1.2,1.3-3.5,4-6.7c2.6-3.3,4-5.5,4-6.7v-4.7c-1.2-1.9-2.6-2.8-4.2-2.8
			c-0.3,0-3.6,2.3-9.8,7c-6.2,4.7-11.8,7-16.8,7c-12.4,0-28.2-7-47.5-20.9c-0.8-0.6-1.6-1.2-2.3-1.8c28.7-6.7,54.6-15.6,77.4-26.8
			c25.4-12.2,46.1-25.9,62.2-41.3c12.5-11.5,18.8-19.7,18.8-24.6v-7.3c-4.2-1.7-6.8-2.6-7.8-2.6c-3.1,0-7.7,4.5-13.6,13.6
			c-8,11.8-15.3,20.2-21.9,25.1v-1.6c0-9.1-2.8-13.6-8.4-13.6c-2.4,0-7.5,4.2-15.2,12.5c-13.2,15-23,25.4-29.3,31.3
			c-1.7-1.7-2.6-3.7-2.6-5.7c0-1.4,0.3-3.2,1-5.5c0.7-2.3,1-3.9,1-5c0-8.4-6.6-12.5-19.8-12.5c-2.1,0-4.7,1.1-7.8,3.4
			c-3.1,2.3-5.1,4.8-5.7,7.6c-4.5,15.3-16,26.8-34.5,34.5c1.7-12.2,2.6-17.8,2.6-16.7c0-13.9-5.4-20.9-16.2-20.9
			c-7.7,0-16.5,5.7-26.6,17.2c-12.5,14.3-22.5,23.5-29.8,27.7c-8.4,4.5-18.5,8.5-30.3,12c-1.8,0-3.5-0.5-5.2-1.6
			c24-17.4,36-33.4,36-48.1c0-4.2-2.3-8-6.8-11.5c-4.5-3.5-9.4-5.2-14.6-5.2c-8.4,0-25.4,9.6-51.2,28.7
			c-14.3,10.5-23.3,16.9-27.2,19.3c-9.8,5.2-20,7.8-30.8,7.8c-5.6,0-12.4-0.5-20.4-1.6c38.7-23.7,58-42.8,58-57.5
			c0-5.2-2.4-10.3-7.3-15.1c-4.9-4.9-9.9-7.3-15.1-7.3c-9.8,0-22.1,7.7-37.1,23c-16.4,16.4-29.3,25.4-38.7,27.2
			c9.1-20.5,13.6-32.7,13.6-36.6c0-12.2-5-18.3-15.1-18.3c-8.7,0-17.1,5.7-25.1,17.2c-3.5,8.4-9.6,19-18.3,31.9
			c-7.3,5.9-16.4,9.9-27.2,12c-8,1.8-12,3.8-12,6.3c0,5.2,2.8,9.2,8.4,12c1.4,0.4,9.9,2.8,25.6,7.3c16.1,4.6,32.3,8.5,48.4,11.8
			c2,1.4,4.7,2.1,8,2.1c0.8,0,1.6,0,2.4-0.1c36.5,6.8,72.9,10.2,109.4,10.2c50.9,0,96.3-4.1,136.4-12.3c12.7,13.3,28,24.8,45.9,34.4
			c32.3,17.4,69.3,26.1,111.2,26.1c25.1,0,59.1-4.7,101.9-14c11.8-3.1,23.7-6,35.8-8.8c14.3-3.4,26.5-5.1,36.8-5.1
			c18.9,0,32.7,5.3,41.4,15.8c2.2,3.4,4.6,6.8,7.2,10.2c2.6,3.4,6.1,5.1,10.5,5.1c6.5,0,9.8-2.3,9.8-7c0-4-3.1-9.1-9.3-15.4
			C2113.2,2714,2105.1,2708.9,2095.2,2704.8z"/>
	</g>
	<path class="st2" d="M1055.2,2663c15.7-4.5,24.2-7,25.6-7.3c5.6-2.8,8.4-6.8,8.4-12c0-2.4-4-4.5-12-6.3c-10.8-2.1-19.8-6.1-27.2-12
		c-8.7-12.9-14.8-23.5-18.3-31.9c-8-11.5-16.4-17.2-25.1-17.2c-10.1,0-15.1,6.1-15.1,18.3c0,3.8,4.5,16,13.6,36.6
		c-9.4-1.7-22.3-10.8-38.7-27.2c-15-15.3-27.3-23-37.1-23c-5.2,0-10.3,2.4-15.1,7.3c-4.9,4.9-7.3,9.9-7.3,15.1
		c0,14.6,19.3,33.8,58,57.5c-8,1-14.8,1.6-20.4,1.6c-10.8,0-21.1-2.6-30.8-7.8c-3.8-2.4-12.9-8.9-27.2-19.3
		c-25.8-19.2-42.8-28.7-51.2-28.7c-5.2,0-10.1,1.8-14.6,5.2c-4.5,3.5-6.8,7.3-6.8,11.5c0,14.6,12,30.7,36,48.1
		c-1.7,1-3.5,1.6-5.2,1.6c-11.8-3.5-21.9-7.5-30.3-12c-4.2-2.4-9.3-6.5-15.3-12.3c0-0.2,0-0.4,0-0.6c0-2.8-1.2-4.2-3.7-4.2
		c-0.2,0-0.5,0.1-0.8,0.3c-3.1-3.2-6.4-6.8-10-10.9c-10.1-11.5-19-17.2-26.6-17.2c-10.8,0-16.2,7-16.2,20.9c0-1,0.9,4.5,2.6,16.7
		c-18.5-7.7-29.9-19.2-34.5-34.5c-0.7-2.8-2.6-5.3-5.7-7.6c-3.1-2.3-5.7-3.4-7.8-3.4c-13.2,0-19.8,4.2-19.8,12.5c0,1,0.4,2.7,1,5
		c0.7,2.3,1,4.1,1,5.5c0,2.1-0.9,4-2.6,5.7c-6.3-5.9-16-16.4-29.3-31.3c-7.7-8.4-12.7-12.5-15.2-12.5c-5.6,0-8.4,4.5-8.4,13.6v1.6
		c-6.6-4.9-13.9-13.2-21.9-25.1c-5.9-9-10.4-13.6-13.6-13.6c-1,0-3.7,0.9-7.8,2.6v7.3c0,4.9,6.3,13.1,18.8,24.6
		c16,15.3,36.7,29.1,62.2,41.3c30.2,14.7,65.5,25.6,105.9,32.5c-2.7,2.5-5.6,4.8-8.6,7c-19.2,14-35.1,20.9-47.5,20.9
		c-5,0-10.5-2.3-16.8-7c-6.2-4.7-9.5-7-9.8-7c-1.5,0-2.9,0.9-4.2,2.8v4.7c0,1.2,1.3,3.5,4,6.7c2.6,3.3,4,5.5,4,6.7
		c0,3.7-2.9,5.6-8.8,5.6c-17.4,0-30.1-6.7-38.2-20c-4-7.4-7.9-15-11.6-22.8c-4.7-6.8-10.5-10.2-17.7-10.2c-4.7,0-9.2,2.7-13.7,8.1
		c-4.5,5.4-6.7,11.4-6.7,17.9c0,5.3,2.3,13.3,7,24.2c-2.8,2.2-5,3.3-6.5,3.3c-11.8,0-23.4-4-34.9-11.9
		c-11.5-7.9-18.8-17.1-21.9-27.7c-3.4,0.3-5.9,1.7-7.4,4.2c-0.3,0.6-1.9,3.9-4.7,9.8h-4.2c-4-12.1-8.1-24.2-12.1-36.3
		c-3.4-8.1-9.6-12.1-18.6-12.1c-14.6,0-21.9,11.6-21.9,34.9c0,5.3,0.5,12.1,1.4,20.5l-2.3,0.9c-18.3-8.1-45.6-30.2-81.9-66.6
		c-1.5-1.5-4.5-2.3-8.8-2.3c-5.9,0-8.8,2.8-8.8,8.4c0,3.7,7.3,11.9,21.9,24.7c18.6,16.1,41.4,30.6,68.4,43.3
		c-30.4,0.9-47,2-49.8,3.3c-9.9,4-18,9.2-24.2,15.4c-6.2,6.2-9.3,11.3-9.3,15.4c0,4.7,3.3,7,9.8,7c4.3,0,7.8-1.7,10.5-5.1
		c2.6-3.4,5-6.8,7.2-10.2c8.7-10.5,22.5-15.8,41.4-15.8c10.2,0,22.5,1.7,36.8,5.1c12.1,2.8,24,5.7,35.8,8.8
		c42.8,9.3,76.8,14,101.9,14c41.9,0,79-8.7,111.2-26.1c20.5-11,37.6-24.5,51.4-40.5c33,4.9,69.2,7.4,108.7,7.4
		c36.3,0,72.5-3.4,108.8-10.1c0.9,2.4,2.9,4.9,6.2,7.6c4.5,3.8,8.3,5.7,11.4,5.7c2.4,0,4.6-1.3,6.7-3.9c2.1-2.6,3.1-5.4,3.1-8.5
		v-5.7c0-0.3,0-0.6-0.1-0.9C1033.8,2668.9,1044.5,2666.1,1055.2,2663z"/>
</g>
</svg>
