<?xml version="1.0" encoding="utf-8"?>
<!-- Generator: Adobe Illustrator 25.4.1, SVG Export Plug-In . SVG Version: 6.00 Build 0)  -->
<svg version="1.1" id="Layer_1" xmlns="http://www.w3.org/2000/svg" xmlns:xlink="http://www.w3.org/1999/xlink" x="0px" y="0px"
	 viewBox="0 0 80 80" style="enable-background:new 0 0 80 80;" xml:space="preserve">
<style type="text/css">
	.st0{opacity:0.1;}
	.st1{fill:#FFFFFF;}
</style>
<g class="st0">
	<path class="st1" d="M71.1,59.7c0,2.9-13.5,6-30.2,6s-30.3-3.1-30.3-6s13.5-5.2,30.2-5.2S71.1,56.9,71.1,59.7z"/>
	<path class="st1" d="M10.6,57.6c4.5-2.1,10.3-4.8,30-4.5c23.9,0.4,23.7,2,30.3,4c0.2-0.3,2.5-0.3,2.5-1.8c0-2.9-16.4-8.2-33-8.1
		c-16.2,0.1-31.6,5.2-31.6,8C8.7,56.8,10.1,57.2,10.6,57.6z"/>
	<path class="st1" d="M72.2,44.3c0-1.8,1.5-3.3,3.3-3.3c0.2,0,0.4,0,0.6,0.1L79.1,26l-10,10.4l-6.2-16.6L51.8,33.6l-10-20l-12.1,20
		L19.3,18.4l-5.2,19l-10-12.4l2.2,16c0.1,0,0.3,0,0.4,0c1.8,0,3.3,1.5,3.3,3.3c0,1.7-1.2,3-2.8,3.3l0.7,5.5c32.1-16.2,66,0,66,0
		l1-5.4C73.4,47.3,72.2,45.9,72.2,44.3z M21.8,41.3c-1.8,0-3.3-1.5-3.3-3.3s1.5-3.3,3.3-3.3c1.8,0,3.3,1.5,3.3,3.3
		S23.6,41.3,21.8,41.3z M41.1,38.6c-1.8,0-3.3-1.5-3.3-3.3c0-1.8,1.5-3.3,3.3-3.3c1.8,0,3.3,1.5,3.3,3.3
		C44.4,37.1,42.9,38.6,41.1,38.6z M60,40.9c-1.8,0-3.3-1.5-3.3-3.3c0-1.8,1.5-3.3,3.3-3.3s3.3,1.5,3.3,3.3
		C63.3,39.5,61.9,40.9,60,40.9z"/>
</g>
</svg>
